<?xml version="1.0" encoding="utf-8"?>
<!-- Generator: Adobe Illustrator 16.0.0, SVG Export Plug-In . SVG Version: 6.00 Build 0)  -->
<!DOCTYPE svg PUBLIC "-//W3C//DTD SVG 1.1//EN" "http://www.w3.org/Graphics/SVG/1.1/DTD/svg11.dtd">
<svg version="1.1" id="Layer_1" xmlns="http://www.w3.org/2000/svg" xmlns:xlink="http://www.w3.org/1999/xlink" x="0px" y="0px"
	 width="315.832px" height="105.26px" viewBox="0 0 315.832 105.26" enable-background="new 0 0 315.832 105.26"
	 xml:space="preserve">
<rect x="76.361" y="47.771" fill="#FFFFFF" width="121.805" height="47.359"/>
<g id="BACKGROUND">
</g>
<g id="DESIGNED_BY_FREEPIK">
</g>
<text transform="matrix(1 0 0 1 111.0615 89.7324)" display="none" enable-background="new    " font-family="'Consolas'" font-size="30">Local tail</text>
<path fill="#FFFFFF" stroke="#000000" stroke-width="2" stroke-linecap="round" stroke-linejoin="round" stroke-miterlimit="10" d="
	M31.791-2.495c1.601,1.295,40.063-1.236,41.476,0.35l33.595,36.645c14.054,15.797,12.644,39.997-3.15,54.047l0,0
	c-15.797,14.055-39.995,12.641-54.05-3.152L34.768,68.271"/>
<path fill="none" stroke="#000000" stroke-width="2" stroke-linecap="round" stroke-linejoin="round" stroke-miterlimit="10" d="
	M67.879-7.136c0,0-1.932-23.971-7-26.702c-5.066-2.729-16.212,18.858-16.212,18.858c-5.438,0-10.6,1.146-15.284,3.188
	c-2.844-7.416-8.476-20.1-13.712-20.1c-7.403,0-9.287,20.66-9.287,55.191v90.869c0,21.141,17.139,38.283,38.284,38.283"/>
<path stroke="#000000" stroke-linecap="round" stroke-linejoin="round" stroke-miterlimit="10" d="M92.923,72.409
	c4.277-0.729,11.796-2.068,10.524-7.936c-1.752-8.105-26.894-6.906-27.084,0.898C76.233,70.753,81.332,74.386,92.923,72.409z"/>
<path fill="#00BAA6" stroke="#000000" stroke-width="2" stroke-linecap="round" stroke-linejoin="round" stroke-miterlimit="10" d="
	M49.662,85.396c0,0-23.434,10.836-43.277,1.481v18.121c0,0,30.749,15.198,59.045-8.979C65.431,96.019,55.521,93.307,49.662,85.396z"
	/>
<path fill="none" stroke="#000000" stroke-width="2" stroke-linecap="round" stroke-linejoin="round" stroke-miterlimit="10" d="
	M89.862,66.537c0,0,4.923,11.862-4.678,18.856"/>
<line fill="none" stroke="#000000" stroke-width="2" stroke-linecap="round" stroke-linejoin="round" stroke-miterlimit="10" x1="43.676" y1="35.231" x2="43.676" y2="21.865"/>
<line fill="none" stroke="#000000" stroke-width="2" stroke-linecap="round" stroke-linejoin="round" stroke-miterlimit="10" x1="72.445" y1="35.231" x2="72.445" y2="21.865"/>
<path display="none" fill="none" stroke="#000000" stroke-linecap="round" stroke-linejoin="round" stroke-miterlimit="10" d="
	M105.479,86.858h66.114c0,0,19.032-15.381,6.345-32.146c0,0,28.998,10.422,14.5,35.34"/>
<path fill="#FFC22F" stroke="#000000" stroke-linecap="round" stroke-linejoin="round" stroke-miterlimit="10" d="M89.185,132.309
	c0,5.085-4.123,9.21-9.208,9.21c-5.086,0-9.208-4.125-9.208-9.21c0-5.081,4.122-9.206,9.208-9.206S89.185,127.228,89.185,132.309z"
	/>
<text transform="matrix(1 0 0 1 202.665 45.3037)" font-family="'Consolas'" font-size="40">Local</text>
<text transform="matrix(1 0 0 1 202.665 90.7627)" font-family="'Consolas'" font-size="40">tail</text>
<path fill="none" stroke="#000000" stroke-width="2" stroke-linecap="round" stroke-linejoin="round" stroke-miterlimit="10" d="
	M105.479,86.858h66.114c0,0,17.525-13.903,1.641-31.182c0,0,33.702,9.458,19.204,34.376"/>
<rect display="none" width="315.832" height="105.26"/>
</svg>
