<?xml version="1.0" encoding="utf-8"?>
<!-- Generator: Adobe Illustrator 16.0.0, SVG Export Plug-In . SVG Version: 6.00 Build 0)  -->
<!DOCTYPE svg PUBLIC "-//W3C//DTD SVG 1.1//EN" "http://www.w3.org/Graphics/SVG/1.1/DTD/svg11.dtd">
<svg version="1.1" xmlns="http://www.w3.org/2000/svg" xmlns:xlink="http://www.w3.org/1999/xlink" x="0px" y="0px"
	 width="315.832px" height="105.26px" viewBox="0 97.371 315.832 105.26" enable-background="new 0 97.371 315.832 105.26"
	 xml:space="preserve">
<g id="Layer_1">
	<g id="BACKGROUND">
	</g>
	<g id="DESIGNED_BY_FREEPIK">
	</g>
	<g>
		<defs>
			<polygon id="SVGID_1_" points="210.518,202.246 -8,202.631 -8,97.371 210.518,97.371 			"/>
		</defs>
		<clipPath id="SVGID_2_">
			<use xlink:href="#SVGID_1_"  overflow="visible"/>
		</clipPath>
		<g id="OBJECTS" clip-path="url(#SVGID_2_)">
			<g>
				<g>
					
						<path fill="none" stroke="#000000" stroke-width="2" stroke-linecap="round" stroke-linejoin="round" stroke-miterlimit="10" d="
						M68.734,90.896c1.601,1.295,3.12,2.743,4.533,4.33l33.595,36.644c14.054,15.797,12.644,39.997-3.15,54.047l0,0
						c-15.797,14.055-39.995,12.641-54.05-3.152l-14.894-17.124"/>
					
						<path fill="none" stroke="#000000" stroke-width="2" stroke-linecap="round" stroke-linejoin="round" stroke-miterlimit="10" d="
						M67.879,90.235c0,0-1.932-23.97-7-26.702c-5.066-2.729-16.212,18.858-16.212,18.858c-5.438,0-10.6,1.146-15.284,3.188
						c-2.844-7.416-8.476-20.099-13.712-20.099c-7.403,0-9.287,20.659-9.287,55.191v90.869c0,21.141,17.139,38.283,38.284,38.283"/>
					<path stroke="#000000" stroke-width="2" stroke-linecap="round" stroke-linejoin="round" stroke-miterlimit="10" d="
						M92.057,167.881c3.02-0.516,8.33-1.461,7.432-5.605c-1.237-5.723-18.992-4.877-19.126,0.635
						C80.271,166.711,83.871,169.277,92.057,167.881z"/>
					
						<path fill="#00BAA6" stroke="#000000" stroke-width="2" stroke-linecap="round" stroke-linejoin="round" stroke-miterlimit="10" d="
						M49.662,182.766c0,0-23.434,10.836-43.277,1.482v18.121c0,0,30.749,15.199,59.045-8.979
						C65.431,193.389,55.521,190.678,49.662,182.766z"/>
					
						<path fill="none" stroke="#000000" stroke-width="2" stroke-linecap="round" stroke-linejoin="round" stroke-miterlimit="10" d="
						M89.862,163.908c0,0,4.923,11.863-4.678,18.857"/>
					
						<line fill="none" stroke="#000000" stroke-width="2" stroke-linecap="round" stroke-linejoin="round" stroke-miterlimit="10" x1="50.359" y1="125.919" x2="36.993" y2="125.919"/>
					
						<line fill="none" stroke="#000000" stroke-width="2" stroke-linecap="round" stroke-linejoin="round" stroke-miterlimit="10" x1="79.128" y1="125.919" x2="65.762" y2="125.919"/>
					
						<path fill="none" stroke="#000000" stroke-width="2" stroke-linecap="round" stroke-linejoin="round" stroke-miterlimit="10" d="
						M105.479,184.229h66.114c0,0,19.032-15.381,6.344-32.145c0,0,28.998,10.422,14.501,35.34"/>
				</g>
			</g>
			
				<path fill="#FFC22F" stroke="#000000" stroke-width="2" stroke-linecap="round" stroke-linejoin="round" stroke-miterlimit="10" d="
				M89.185,229.68c0,5.084-4.123,9.209-9.208,9.209c-5.086,0-9.208-4.125-9.208-9.209c0-5.082,4.122-9.207,9.208-9.207
				S89.185,224.598,89.185,229.68z"/>
		</g>
	</g>
	<text transform="matrix(1 0 0 1 111.0615 187.1035)" display="none" font-family="'Consolas'" font-size="30" letter-spacing="1">Local tail</text>
	<text transform="matrix(1 0 0 1 202.665 142.6753)"><tspan x="0" y="0" font-family="'Consolas'" font-size="40">Local</tspan><tspan x="0" y="45.458" font-family="'Consolas'" font-size="40">tail</tspan></text>
</g>
<g id="Layer_2">
</g>
</svg>
